<svg width="100" height="100" viewBox="0 0 100 100" fill="none" xmlns="http://www.w3.org/2000/svg">
  <g opacity="0.1">
    <path d="M50 70C61.0457 70 70 61.0457 70 50C70 38.9543 61.0457 30 50 30C38.9543 30 30 38.9543 30 50C30 61.0457 38.9543 70 50 70Z" fill="currentColor"/>
    <path d="M50 65C58.2843 65 65 58.2843 65 50C65 41.7157 58.2843 35 50 35C41.7157 35 35 41.7157 35 50C35 58.2843 41.7157 65 50 65Z" fill="currentColor"/>
    <path d="M50 60C55.5228 60 60 55.5228 60 50C60 44.4772 55.5228 40 50 40C44.4772 40 40 44.4772 40 50C40 55.5228 44.4772 60 50 60Z" fill="currentColor"/>
  </g>
</svg>

